<svg xmlns="http://www.w3.org/2000/svg" viewBox="0 0 500 500"><g id="freepik--background-complete--inject-42"><rect y="382.4" width="500" height="0.25" style="fill:#ebebeb"></rect><rect x="416.78" y="398.49" width="33.12" height="0.25" style="fill:#ebebeb"></rect><rect x="322.53" y="401.21" width="8.69" height="0.25" style="fill:#ebebeb"></rect><rect x="396.59" y="389.21" width="19.19" height="0.25" style="fill:#ebebeb"></rect><rect x="52.46" y="390.89" width="43.19" height="0.25" style="fill:#ebebeb"></rect><rect x="104.56" y="390.89" width="6.33" height="0.25" style="fill:#ebebeb"></rect><rect x="131.47" y="395.11" width="93.68" height="0.25" style="fill:#ebebeb"></rect><path d="M237,337.8H43.91a5.71,5.71,0,0,1-5.7-5.71V60.66A5.71,5.71,0,0,1,43.91,55H237a5.71,5.71,0,0,1,5.71,5.71V332.09A5.71,5.71,0,0,1,237,337.8ZM43.91,55.2a5.46,5.46,0,0,0-5.45,5.46V332.09a5.46,5.46,0,0,0,5.45,5.46H237a5.47,5.47,0,0,0,5.46-5.46V60.66A5.47,5.47,0,0,0,237,55.2Z" style="fill:#ebebeb"></path><path d="M453.31,337.8H260.21a5.72,5.72,0,0,1-5.71-5.71V60.66A5.72,5.72,0,0,1,260.21,55h193.1A5.71,5.71,0,0,1,459,60.66V332.09A5.71,5.71,0,0,1,453.31,337.8ZM260.21,55.2a5.47,5.47,0,0,0-5.46,5.46V332.09a5.47,5.47,0,0,0,5.46,5.46h193.1a5.47,5.47,0,0,0,5.46-5.46V60.66a5.47,5.47,0,0,0-5.46-5.46Z" style="fill:#ebebeb"></path><path d="M407.79,344.39s11.93-17.08,3.7-36.69-3.39-27.06-3.39-27.06l8,15.87s7.49-11.73,4.55-25.49,3.83-36.92,3.83-36.92-2.44,26.8,1.84,37.44c0,0,6.26-10.32,8.49-20.74s9.07-31,9.07-31l-10.48,63.8,23-28.79s-23.41,39-26.53,46.6l25.44-12.69s-12.47,19.56-22.33,23.3-20.58,34.24-20.58,34.24Z" style="fill:#e0e0e0"></path><path d="M416.27,352.06s-10.36-21,2.07-41.33,8.33-29.46,8.33-29.46l-11.53,16.27s-6.34-14.27-.75-29.05,2-41.61,2-41.61S414.55,257,408,268.12c0,0-5.2-12.51-5.92-24.45s-4.85-35.93-4.85-35.93l.88,72.56L377.5,244.48s19.4,47.22,21.58,56.19L373,282.29c1.64-.65,16.42,21.45,20.85,29.62,5.65,10.4,17.06,41.45,17.06,41.45Z" style="fill:#f0f0f0"></path><polygon points="381.82 342.94 443.63 342.94 438.63 382.62 386.82 382.62 381.82 342.94" style="fill:#f5f5f5"></polygon><path d="M384.11,152.8a12.48,12.48,0,0,1-5-4.68,13.74,13.74,0,0,1,0-13.67,12.51,12.51,0,0,1,5-4.69,15.3,15.3,0,0,1,7.21-1.68,15.74,15.74,0,0,1,6.56,1.3,12.22,12.22,0,0,1,4.76,3.75l-5.37,4.8a6.9,6.9,0,0,0-5.52-3,5.63,5.63,0,0,0-4.29,1.71,7.34,7.34,0,0,0,0,9.2,5.63,5.63,0,0,0,4.29,1.71,6.88,6.88,0,0,0,5.52-3l5.37,4.79a12,12,0,0,1-4.76,3.75,15.74,15.74,0,0,1-6.56,1.3A15.3,15.3,0,0,1,384.11,152.8Z" style="fill:#e0e0e0"></path><path d="M423.06,144.35h-5.95v5.77h-6.5v-5.77h-5.95v-6.13h5.95v-5.77h6.5v5.77h5.95Z" style="fill:#e0e0e0"></path><path d="M114.6,226.43a7.72,7.72,0,0,1-3.1-2.89,8.47,8.47,0,0,1,0-8.42,7.79,7.79,0,0,1,3.1-2.89,9.56,9.56,0,0,1,4.44-1,9.82,9.82,0,0,1,4,.8,7.47,7.47,0,0,1,2.93,2.31l-3.31,3a4.23,4.23,0,0,0-3.4-1.82,3.47,3.47,0,0,0-2.64,1.05,4.52,4.52,0,0,0,0,5.67,3.47,3.47,0,0,0,2.64,1.05,4.23,4.23,0,0,0,3.4-1.82l3.31,3a7.66,7.66,0,0,1-2.93,2.31,9.82,9.82,0,0,1-4,.8A9.44,9.44,0,0,1,114.6,226.43Z" style="fill:#e0e0e0"></path><path d="M138.6,221.22h-3.67v3.56h-4v-3.56h-3.66v-3.78h3.66v-3.55h4v3.55h3.67Z" style="fill:#e0e0e0"></path><path d="M262.51,87.86a6.76,6.76,0,0,1-2.73-2.54,7.43,7.43,0,0,1,0-7.41,6.85,6.85,0,0,1,2.73-2.55,8.41,8.41,0,0,1,3.91-.91,8.57,8.57,0,0,1,3.56.71,6.56,6.56,0,0,1,2.59,2l-2.92,2.6a3.73,3.73,0,0,0-3-1.6,3.06,3.06,0,0,0-2.33.93,4,4,0,0,0,0,5,3.06,3.06,0,0,0,2.33.93,3.74,3.74,0,0,0,3-1.61L272.57,86a6.65,6.65,0,0,1-2.59,2,8.57,8.57,0,0,1-3.56.7A8.29,8.29,0,0,1,262.51,87.86Z" style="fill:#e0e0e0"></path><path d="M275.49,88.39a8.83,8.83,0,0,1-2.65-1L274.33,84a9.41,9.41,0,0,0,2.19.91,8.48,8.48,0,0,0,2.33.34,3.74,3.74,0,0,0,1.37-.18.61.61,0,0,0,.41-.56c0-.29-.18-.5-.54-.65a12.14,12.14,0,0,0-1.77-.47,20.19,20.19,0,0,1-2.64-.71,4.41,4.41,0,0,1-1.84-1.25,3.41,3.41,0,0,1-.78-2.36,4.1,4.1,0,0,1,.72-2.35,4.75,4.75,0,0,1,2.16-1.66,8.92,8.92,0,0,1,3.5-.61,12.17,12.17,0,0,1,2.76.31,8.31,8.31,0,0,1,2.4.89L283.21,79a8.44,8.44,0,0,0-3.81-1c-1.19,0-1.78.29-1.78.87,0,.27.17.47.52.61a11.63,11.63,0,0,0,1.75.44,17.87,17.87,0,0,1,2.64.68,4.55,4.55,0,0,1,1.87,1.24,3.37,3.37,0,0,1,.79,2.35,4,4,0,0,1-.73,2.34,4.89,4.89,0,0,1-2.16,1.66,8.86,8.86,0,0,1-3.49.61A14.09,14.09,0,0,1,275.49,88.39Z" style="fill:#e0e0e0"></path><path d="M288.35,88.39a8.73,8.73,0,0,1-2.65-1L287.18,84a9.67,9.67,0,0,0,2.2.91,8.41,8.41,0,0,0,2.32.34,3.7,3.7,0,0,0,1.37-.18.6.6,0,0,0,.42-.56c0-.29-.18-.5-.54-.65a12.14,12.14,0,0,0-1.77-.47,20.84,20.84,0,0,1-2.65-.71,4.54,4.54,0,0,1-1.84-1.25,3.41,3.41,0,0,1-.78-2.36,4,4,0,0,1,.73-2.35,4.75,4.75,0,0,1,2.16-1.66,8.86,8.86,0,0,1,3.49-.61,12.25,12.25,0,0,1,2.77.31,8.31,8.31,0,0,1,2.4.89L296.07,79a8.51,8.51,0,0,0-3.82-1c-1.19,0-1.78.29-1.78.87,0,.27.18.47.53.61a11.11,11.11,0,0,0,1.74.44,17.55,17.55,0,0,1,2.64.68,4.49,4.49,0,0,1,1.87,1.24,3.33,3.33,0,0,1,.79,2.35,4,4,0,0,1-.72,2.34,4.89,4.89,0,0,1-2.16,1.66,8.92,8.92,0,0,1-3.5.61A14,14,0,0,1,288.35,88.39Z" style="fill:#e0e0e0"></path><path d="M153.09,261.91a3.5,3.5,0,0,1-1.37-1.27,3.54,3.54,0,0,1-.49-1.86,3.48,3.48,0,0,1,.49-1.85,3.36,3.36,0,0,1,1.37-1.27,4.08,4.08,0,0,1,2-.46,4.42,4.42,0,0,1,1.78.35,3.41,3.41,0,0,1,1.29,1l-1.46,1.3a1.87,1.87,0,0,0-1.5-.8,1.51,1.51,0,0,0-1.16.46,2,2,0,0,0,0,2.5,1.51,1.51,0,0,0,1.16.46,1.85,1.85,0,0,0,1.5-.8l1.46,1.3a3.23,3.23,0,0,1-1.29,1,4.25,4.25,0,0,1-1.78.35A4.19,4.19,0,0,1,153.09,261.91Z" style="fill:#e0e0e0"></path><path d="M159.58,262.17a4.74,4.74,0,0,1-1.33-.51L159,260a4.88,4.88,0,0,0,1.09.45,4.53,4.53,0,0,0,1.17.17,1.8,1.8,0,0,0,.68-.09.3.3,0,0,0,.21-.28c0-.14-.09-.25-.27-.32a6.75,6.75,0,0,0-.89-.24,11.59,11.59,0,0,1-1.32-.35,2.3,2.3,0,0,1-.92-.63,1.7,1.7,0,0,1-.39-1.18,2,2,0,0,1,.36-1.17,2.45,2.45,0,0,1,1.08-.84,4.57,4.57,0,0,1,1.75-.3,6.5,6.5,0,0,1,1.39.15,4.09,4.09,0,0,1,1.19.45l-.69,1.67a4.24,4.24,0,0,0-1.91-.51c-.59,0-.89.15-.89.43s.09.24.27.31a5.26,5.26,0,0,0,.87.22,8.93,8.93,0,0,1,1.32.34,2.24,2.24,0,0,1,.93.62,1.65,1.65,0,0,1,.4,1.17,2,2,0,0,1-.36,1.17,2.46,2.46,0,0,1-1.09.83,4.3,4.3,0,0,1-1.74.31A7,7,0,0,1,159.58,262.17Z" style="fill:#e0e0e0"></path><path d="M166,262.17a4.74,4.74,0,0,1-1.33-.51l.75-1.68a4.88,4.88,0,0,0,1.09.45,4.47,4.47,0,0,0,1.17.17,1.84,1.84,0,0,0,.68-.09.3.3,0,0,0,.21-.28c0-.14-.09-.25-.27-.32a6.75,6.75,0,0,0-.89-.24,11.05,11.05,0,0,1-1.32-.35,2.3,2.3,0,0,1-.92-.63,1.7,1.7,0,0,1-.39-1.18,2,2,0,0,1,.36-1.17,2.39,2.39,0,0,1,1.08-.84,4.54,4.54,0,0,1,1.75-.3,6.34,6.34,0,0,1,1.38.15,4,4,0,0,1,1.2.45l-.69,1.67A4.24,4.24,0,0,0,168,257c-.59,0-.89.15-.89.43s.09.24.26.31a5.88,5.88,0,0,0,.87.22,8.77,8.77,0,0,1,1.33.34,2.31,2.31,0,0,1,.93.62,1.69,1.69,0,0,1,.4,1.17,2,2,0,0,1-.37,1.17,2.38,2.38,0,0,1-1.08.83,4.33,4.33,0,0,1-1.74.31A7,7,0,0,1,166,262.17Z" style="fill:#e0e0e0"></path><path d="M208.3,82a3,3,0,0,1,1.33,1.1,3,3,0,0,1-1.33,4.47,5.07,5.07,0,0,1-2,.38h-1.21V90h-2.83v-8.4h4A4.9,4.9,0,0,1,208.3,82ZM207,85.51a.91.91,0,0,0,.29-.73.89.89,0,0,0-.29-.72,1.21,1.21,0,0,0-.86-.26h-1v2h1A1.26,1.26,0,0,0,207,85.51Z" style="fill:#e0e0e0"></path><path d="M219.3,81.61V90h-2.83V86.92h-2.62V90H211v-8.4h2.83v3h2.62v-3Z" style="fill:#e0e0e0"></path><path d="M226.74,82a2.91,2.91,0,0,1,1.33,1.1,3.24,3.24,0,0,1,0,3.36,3,3,0,0,1-1.33,1.11,5,5,0,0,1-2,.38H223.5V90h-2.83v-8.4h4A4.87,4.87,0,0,1,226.74,82Zm-1.34,3.51a.94.94,0,0,0,.29-.73.92.92,0,0,0-.29-.72,1.22,1.22,0,0,0-.87-.26h-1v2h1A1.27,1.27,0,0,0,225.4,85.51Z" style="fill:#e0e0e0"></path><path d="M321.05,272.9v12.84h-4.33V281h-4v4.73H308.4V272.9h4.33v4.55h4V272.9Z" style="fill:#e0e0e0"></path><path d="M330.4,285.39a5.26,5.26,0,0,1-2.55.53,4.66,4.66,0,0,1-3.24-1,3.87,3.87,0,0,1-1.14-3v-2.57h-1.38v-3h1.38v-2.81h4.14v2.81h2.05v3h-2.05v2.53a1,1,0,0,0,.24.72.82.82,0,0,0,.62.26,1.65,1.65,0,0,0,.94-.28Z" style="fill:#e0e0e0"></path><path d="M347.62,276.64a4.66,4.66,0,0,1,1.09,3.38v5.72h-4.14v-5c0-1.15-.37-1.72-1.12-1.72a1.12,1.12,0,0,0-.94.44,2.18,2.18,0,0,0-.36,1.39v4.9H338v-5c0-1.15-.38-1.72-1.12-1.72a1.15,1.15,0,0,0-.95.44,2.25,2.25,0,0,0-.35,1.39v4.9h-4.15v-10h3.94v.93a3.89,3.89,0,0,1,2.85-1.11,4.25,4.25,0,0,1,1.81.37,3.11,3.11,0,0,1,1.32,1.15,4,4,0,0,1,1.47-1.13,4.5,4.5,0,0,1,1.89-.39A3.88,3.88,0,0,1,347.62,276.64Z" style="fill:#e0e0e0"></path><path d="M350.51,272.13h4.14v13.61h-4.14Z" style="fill:#e0e0e0"></path><path d="M108.5,130.69v8.25h-2.78v-3h-2.57v3h-2.79v-8.25h2.79v2.92h2.57v-2.92Z" style="fill:#e0e0e0"></path><path d="M114.52,138.72a3.31,3.31,0,0,1-1.64.34,3.08,3.08,0,0,1-2.09-.65,2.54,2.54,0,0,1-.73-2v-1.65h-.88v-1.95h.88V131h2.67v1.8h1.32v1.95h-1.32v1.63a.65.65,0,0,0,.15.46.52.52,0,0,0,.4.16,1,1,0,0,0,.6-.17Z" style="fill:#e0e0e0"></path><path d="M125.61,133.09a3,3,0,0,1,.7,2.17v3.68h-2.67v-3.22q0-1.11-.72-1.11a.76.76,0,0,0-.61.29,1.42,1.42,0,0,0-.23.89v3.15h-2.66v-3.22q0-1.11-.72-1.11a.75.75,0,0,0-.61.29,1.42,1.42,0,0,0-.23.89v3.15h-2.67v-6.45h2.54v.6a2.48,2.48,0,0,1,1.83-.72,2.78,2.78,0,0,1,1.17.24,2.16,2.16,0,0,1,.85.74,2.66,2.66,0,0,1,.94-.72,2.9,2.9,0,0,1,1.22-.26A2.51,2.51,0,0,1,125.61,133.09Z" style="fill:#e0e0e0"></path><path d="M127.46,130.19h2.67v8.75h-2.67Z" style="fill:#e0e0e0"></path></g><g id="freepik--Shadow--inject-42"><ellipse id="freepik--path--inject-42" cx="250" cy="416.24" rx="193.89" ry="11.32" style="fill:#f5f5f5"></ellipse></g><g id="freepik--Board--inject-42"><rect x="138.42" y="111.71" width="220.92" height="137.1" style="fill:#263238"></rect><rect x="138.42" y="111.71" width="220.92" height="137.1" style="fill:#fff;opacity:0.5"></rect><rect x="140.77" y="114.29" width="216.21" height="131.94" style="fill:#f5f5f5"></rect><rect x="133.26" y="248.82" width="230.44" height="3.86" style="fill:#263238"></rect><rect x="133.26" y="248.82" width="230.44" height="3.86" style="fill:#fff;opacity:0.30000000000000004"></rect><path d="M212.37,145.94a5.83,5.83,0,0,1-2.28-2.15,6.31,6.31,0,0,1,0-6.22,5.83,5.83,0,0,1,2.28-2.15,7.39,7.39,0,0,1,6.13-.2,5.4,5.4,0,0,1,2.12,1.62l-2.08,1.89a3.42,3.42,0,0,0-2.73-1.36,3.49,3.49,0,0,0-1.69.41A2.92,2.92,0,0,0,213,139a3.94,3.94,0,0,0,0,3.46,2.92,2.92,0,0,0,1.14,1.17,3.49,3.49,0,0,0,1.69.41,3.42,3.42,0,0,0,2.73-1.36l2.08,1.89a5.4,5.4,0,0,1-2.12,1.62,7.49,7.49,0,0,1-6.13-.2Z" style="fill:#407BFF"></path><path d="M224.37,145.93a5.91,5.91,0,0,1-2.3-2.16,5.77,5.77,0,0,1-.83-3.09,5.83,5.83,0,0,1,.83-3.1,6,6,0,0,1,2.3-2.15,7.39,7.39,0,0,1,6.61,0,6,6,0,0,1,2.3,2.15,5.83,5.83,0,0,1,.83,3.1,5.77,5.77,0,0,1-.83,3.09,5.91,5.91,0,0,1-2.3,2.16,7.48,7.48,0,0,1-6.61,0Zm4.89-2.35a3,3,0,0,0,1.13-1.17,3.85,3.85,0,0,0,0-3.46,3,3,0,0,0-1.13-1.17,3.27,3.27,0,0,0-3.17,0A3,3,0,0,0,225,139a3.85,3.85,0,0,0,0,3.46,3,3,0,0,0,1.13,1.17,3.27,3.27,0,0,0,3.17,0Z" style="fill:#407BFF"></path><path d="M235.84,134.89h5.48a7.58,7.58,0,0,1,3.37.71,5.37,5.37,0,0,1,2.29,2,6.18,6.18,0,0,1,0,6.12,5.37,5.37,0,0,1-2.29,2,7.58,7.58,0,0,1-3.37.71h-5.48Zm5.34,9a3.31,3.31,0,0,0,2.39-.85,3.44,3.44,0,0,0,0-4.66,3.31,3.31,0,0,0-2.39-.85h-2.07v6.36Z" style="fill:#407BFF"></path><path d="M249.51,134.89h3.28v11.58h-3.28Z" style="fill:#407BFF"></path><path d="M266.15,134.89v11.58h-2.7l-5.12-6.17v6.17h-3.21V134.89h2.7l5.11,6.17v-6.17Z" style="fill:#407BFF"></path><path d="M276.23,140.43h2.89v4.8a7.3,7.3,0,0,1-2.28,1.09,8.86,8.86,0,0,1-2.58.38,6.93,6.93,0,0,1-3.28-.76,6.08,6.08,0,0,1-2.28-8.37,5.69,5.69,0,0,1,2.3-2.15,7.1,7.1,0,0,1,3.32-.77,7.49,7.49,0,0,1,2.92.55,5.58,5.58,0,0,1,2.15,1.57l-2.09,1.89a3.67,3.67,0,0,0-2.81-1.29,3.28,3.28,0,0,0-2.4.9,3.23,3.23,0,0,0-.91,2.41,3.54,3.54,0,0,0,.41,1.71,2.93,2.93,0,0,0,1.16,1.18,3.44,3.44,0,0,0,1.71.42,4.23,4.23,0,0,0,1.77-.38Z" style="fill:#407BFF"></path><g style="opacity:0.2"><path d="M212.37,145.94a5.83,5.83,0,0,1-2.28-2.15,6.31,6.31,0,0,1,0-6.22,5.83,5.83,0,0,1,2.28-2.15,7.39,7.39,0,0,1,6.13-.2,5.4,5.4,0,0,1,2.12,1.62l-2.08,1.89a3.42,3.42,0,0,0-2.73-1.36,3.49,3.49,0,0,0-1.69.41A2.92,2.92,0,0,0,213,139a3.94,3.94,0,0,0,0,3.46,2.92,2.92,0,0,0,1.14,1.17,3.49,3.49,0,0,0,1.69.41,3.42,3.42,0,0,0,2.73-1.36l2.08,1.89a5.4,5.4,0,0,1-2.12,1.62,7.49,7.49,0,0,1-6.13-.2Z" style="fill:#fff"></path><path d="M224.37,145.93a5.91,5.91,0,0,1-2.3-2.16,5.77,5.77,0,0,1-.83-3.09,5.83,5.83,0,0,1,.83-3.1,6,6,0,0,1,2.3-2.15,7.39,7.39,0,0,1,6.61,0,6,6,0,0,1,2.3,2.15,5.83,5.83,0,0,1,.83,3.1,5.77,5.77,0,0,1-.83,3.09,5.91,5.91,0,0,1-2.3,2.16,7.48,7.48,0,0,1-6.61,0Zm4.89-2.35a3,3,0,0,0,1.13-1.17,3.85,3.85,0,0,0,0-3.46,3,3,0,0,0-1.13-1.17,3.27,3.27,0,0,0-3.17,0A3,3,0,0,0,225,139a3.85,3.85,0,0,0,0,3.46,3,3,0,0,0,1.13,1.17,3.27,3.27,0,0,0,3.17,0Z" style="fill:#fff"></path><path d="M235.84,134.89h5.48a7.58,7.58,0,0,1,3.37.71,5.37,5.37,0,0,1,2.29,2,6.18,6.18,0,0,1,0,6.12,5.37,5.37,0,0,1-2.29,2,7.58,7.58,0,0,1-3.37.71h-5.48Zm5.34,9a3.31,3.31,0,0,0,2.39-.85,3.44,3.44,0,0,0,0-4.66,3.31,3.31,0,0,0-2.39-.85h-2.07v6.36Z" style="fill:#fff"></path><path d="M249.51,134.89h3.28v11.58h-3.28Z" style="fill:#fff"></path><path d="M266.15,134.89v11.58h-2.7l-5.12-6.17v6.17h-3.21V134.89h2.7l5.11,6.17v-6.17Z" style="fill:#fff"></path><path d="M276.23,140.43h2.89v4.8a7.3,7.3,0,0,1-2.28,1.09,8.86,8.86,0,0,1-2.58.38,6.93,6.93,0,0,1-3.28-.76,6.08,6.08,0,0,1-2.28-8.37,5.69,5.69,0,0,1,2.3-2.15,7.1,7.1,0,0,1,3.32-.77,7.49,7.49,0,0,1,2.92.55,5.58,5.58,0,0,1,2.15,1.57l-2.09,1.89a3.67,3.67,0,0,0-2.81-1.29,3.28,3.28,0,0,0-2.4.9,3.23,3.23,0,0,0-.91,2.41,3.54,3.54,0,0,0,.41,1.71,2.93,2.93,0,0,0,1.16,1.18,3.44,3.44,0,0,0,1.71.42,4.23,4.23,0,0,0,1.77-.38Z" style="fill:#fff"></path></g><rect x="269.19" y="157.5" width="28.01" height="3.6" rx="1.76" style="fill:#407BFF"></rect><rect x="269.19" y="165.9" width="68.96" height="3.6" rx="1.76" style="fill:#407BFF"></rect><rect x="269.19" y="173.1" width="66.94" height="3.6" rx="1.76" style="fill:#407BFF"></rect><rect x="269.19" y="180.3" width="73.69" height="3.6" rx="1.76" style="fill:#407BFF"></rect><rect x="269.19" y="187.5" width="67.39" height="3.6" rx="1.76" style="fill:#407BFF"></rect><rect x="269.19" y="194.7" width="67.39" height="3.6" rx="1.76" style="fill:#407BFF"></rect><rect x="269.19" y="201.9" width="71.46" height="3.6" rx="1.76" style="fill:#407BFF"></rect><path d="M326.14,212.7H271a1.76,1.76,0,0,1-1.76-1.76h0a1.76,1.76,0,0,1,1.76-1.76h55.19a1.76,1.76,0,0,1,1.76,1.76h0A1.76,1.76,0,0,1,326.14,212.7Z" style="fill:#407BFF"></path><g style="opacity:0.30000000000000004"><rect x="269.19" y="157.5" width="28.01" height="3.6" rx="1.76" style="fill:#fff"></rect><rect x="269.19" y="165.9" width="68.96" height="3.6" rx="1.76" style="fill:#fff"></rect><rect x="269.19" y="173.1" width="66.94" height="3.6" rx="1.76" style="fill:#fff"></rect><rect x="269.19" y="180.3" width="73.69" height="3.6" rx="1.76" style="fill:#fff"></rect><rect x="269.19" y="187.5" width="67.39" height="3.6" rx="1.76" style="fill:#fff"></rect><rect x="269.19" y="194.7" width="67.39" height="3.6" rx="1.76" style="fill:#fff"></rect><rect x="269.19" y="201.9" width="71.46" height="3.6" rx="1.76" style="fill:#fff"></rect><path d="M326.14,212.7H271a1.76,1.76,0,0,1-1.76-1.76h0a1.76,1.76,0,0,1,1.76-1.76h55.19a1.76,1.76,0,0,1,1.76,1.76h0A1.76,1.76,0,0,1,326.14,212.7Z" style="fill:#fff"></path></g><path d="M169.58,203.76c18.22-2.19,36.64-4.23,55.13-4.78,3.63-.11,7.27-.14,10.9,0,0,0,0-1.78,0-1.78-16-.4-32.05,1.15-47.8,2.78q-9.13.94-18.23,2c-.16,0,.11,1.76,0,1.78Z" style="fill:#407BFF"></path><path d="M178.33,207.21c11.53-2.27,23.19-4.37,34.89-4.94,2.3-.11,4.6-.15,6.9-.06,0,0,0-1.84,0-1.84-10.09-.41-20.28,1.19-30.25,2.88q-5.77,1-11.54,2.12c-.1,0,.07,1.83,0,1.84Z" style="fill:#407BFF"></path><path d="M221.7,122.43,219,130H216.4L215,125.9,213.48,130H210.9l-2.71-7.61h2.52l1.56,4.6,1.62-4.6h2.28l1.57,4.65,1.61-4.65Z" style="fill:#407BFF"></path><path d="M223.92,129.66a3.73,3.73,0,0,1-2.09-3.44,3.74,3.74,0,0,1,2.08-3.42,5.16,5.16,0,0,1,4.43,0,3.71,3.71,0,0,1,1.54,1.39,3.83,3.83,0,0,1,.54,2,3.89,3.89,0,0,1-.54,2,3.8,3.8,0,0,1-1.54,1.4,5,5,0,0,1-4.42,0Zm3.36-2.1a1.89,1.89,0,0,0,.45-1.34,1.85,1.85,0,0,0-.45-1.32,1.63,1.63,0,0,0-2.31,0,1.85,1.85,0,0,0-.45,1.32,1.89,1.89,0,0,0,.45,1.34,1.63,1.63,0,0,0,2.31,0Z" style="fill:#407BFF"></path><path d="M235.26,122.56a4.14,4.14,0,0,1,1.5-.26v2.4a5,5,0,0,0-.61,0,1.86,1.86,0,0,0-1.34.46,1.89,1.89,0,0,0-.48,1.42V130h-2.67v-7.61h2.54v.91A2.45,2.45,0,0,1,235.26,122.56Z" style="fill:#407BFF"></path><path d="M241.31,127.37l-.79.8V130h-2.67V119.62h2.67v5.46l2.73-2.65h3.16l-3.16,3.25,3.43,4.36h-3.23Z" style="fill:#407BFF"></path><path d="M248.11,130a5.15,5.15,0,0,1-1.49-.57l.8-1.83a4.54,4.54,0,0,0,1.24.52,5.77,5.77,0,0,0,1.42.19,2.26,2.26,0,0,0,.92-.14.42.42,0,0,0,.27-.38q0-.26-.33-.36a7.27,7.27,0,0,0-1.05-.21,10,10,0,0,1-1.55-.29,2.4,2.4,0,0,1-1.1-.68,1.89,1.89,0,0,1-.46-1.37,2.07,2.07,0,0,1,.43-1.3,2.86,2.86,0,0,1,1.27-.9,5.48,5.48,0,0,1,2-.33,8.32,8.32,0,0,1,1.65.17,4.6,4.6,0,0,1,1.36.48l-.8,1.81a4.38,4.38,0,0,0-2.19-.56,2.21,2.21,0,0,0-.93.14.43.43,0,0,0-.29.39c0,.18.1.3.32.37a7.88,7.88,0,0,0,1.07.22,12.07,12.07,0,0,1,1.56.32,2.37,2.37,0,0,1,1.07.67,1.91,1.91,0,0,1,.46,1.36,2.07,2.07,0,0,1-.44,1.28,2.8,2.8,0,0,1-1.28.89,5.68,5.68,0,0,1-2,.33A8.47,8.47,0,0,1,248.11,130Z" style="fill:#407BFF"></path><path d="M262.15,123.14a3.38,3.38,0,0,1,.86,2.54V130h-2.66v-3.92c0-1-.42-1.56-1.25-1.56A1.45,1.45,0,0,0,258,125a2,2,0,0,0-.41,1.35V130h-2.67V119.62h2.67v3.51a2.94,2.94,0,0,1,1-.62,3.8,3.8,0,0,1,1.27-.21A3.14,3.14,0,0,1,262.15,123.14Z" style="fill:#407BFF"></path><path d="M266.41,129.66a3.78,3.78,0,0,1-2.09-3.44,3.78,3.78,0,0,1,2.09-3.42,4.83,4.83,0,0,1,2.21-.5,4.9,4.9,0,0,1,2.22.5,3.68,3.68,0,0,1,1.53,1.39,3.74,3.74,0,0,1,.55,2,3.75,3.75,0,0,1-2.08,3.44,5.07,5.07,0,0,1-4.43,0Zm3.36-2.1a1.89,1.89,0,0,0,.45-1.34,1.85,1.85,0,0,0-.45-1.32,1.62,1.62,0,0,0-2.3,0,1.85,1.85,0,0,0-.45,1.32,1.89,1.89,0,0,0,.45,1.34,1.62,1.62,0,0,0,2.3,0Z" style="fill:#407BFF"></path><path d="M280.83,122.78a3.58,3.58,0,0,1,1.35,1.38,4.12,4.12,0,0,1,.5,2.07,4.07,4.07,0,0,1-.5,2.07,3.45,3.45,0,0,1-1.35,1.38,3.74,3.74,0,0,1-1.88.49,2.85,2.85,0,0,1-2.13-.81v3.41h-2.67V122.43h2.55v.75a2.76,2.76,0,0,1,2.25-.88A3.73,3.73,0,0,1,280.83,122.78Zm-1.29,4.78a2.23,2.23,0,0,0,0-2.66,1.52,1.52,0,0,0-1.16-.48,1.5,1.5,0,0,0-1.15.48,2.19,2.19,0,0,0,0,2.66,1.5,1.5,0,0,0,1.15.48A1.52,1.52,0,0,0,279.54,127.56Z" style="fill:#407BFF"></path><g style="opacity:0.2"><path d="M221.7,122.43,219,130H216.4L215,125.9,213.48,130H210.9l-2.71-7.61h2.52l1.56,4.6,1.62-4.6h2.28l1.57,4.65,1.61-4.65Z" style="fill:#fff"></path><path d="M223.92,129.66a3.73,3.73,0,0,1-2.09-3.44,3.74,3.74,0,0,1,2.08-3.42,5.16,5.16,0,0,1,4.43,0,3.71,3.71,0,0,1,1.54,1.39,3.83,3.83,0,0,1,.54,2,3.89,3.89,0,0,1-.54,2,3.8,3.8,0,0,1-1.54,1.4,5,5,0,0,1-4.42,0Zm3.36-2.1a1.89,1.89,0,0,0,.45-1.34,1.85,1.85,0,0,0-.45-1.32,1.63,1.63,0,0,0-2.31,0,1.85,1.85,0,0,0-.45,1.32,1.89,1.89,0,0,0,.45,1.34,1.63,1.63,0,0,0,2.31,0Z" style="fill:#fff"></path><path d="M235.26,122.56a4.14,4.14,0,0,1,1.5-.26v2.4a5,5,0,0,0-.61,0,1.86,1.86,0,0,0-1.34.46,1.89,1.89,0,0,0-.48,1.42V130h-2.67v-7.61h2.54v.91A2.45,2.45,0,0,1,235.26,122.56Z" style="fill:#fff"></path><path d="M241.31,127.37l-.79.8V130h-2.67V119.62h2.67v5.46l2.73-2.65h3.16l-3.16,3.25,3.43,4.36h-3.23Z" style="fill:#fff"></path><path d="M248.11,130a5.15,5.15,0,0,1-1.49-.57l.8-1.83a4.54,4.54,0,0,0,1.24.52,5.77,5.77,0,0,0,1.42.19,2.26,2.26,0,0,0,.92-.14.42.42,0,0,0,.27-.38q0-.26-.33-.36a7.27,7.27,0,0,0-1.05-.21,10,10,0,0,1-1.55-.29,2.4,2.4,0,0,1-1.1-.68,1.89,1.89,0,0,1-.46-1.37,2.07,2.07,0,0,1,.43-1.3,2.86,2.86,0,0,1,1.27-.9,5.48,5.48,0,0,1,2-.33,8.32,8.32,0,0,1,1.65.17,4.6,4.6,0,0,1,1.36.48l-.8,1.81a4.38,4.38,0,0,0-2.19-.56,2.21,2.21,0,0,0-.93.14.43.43,0,0,0-.29.39c0,.18.1.3.32.37a7.88,7.88,0,0,0,1.07.22,12.07,12.07,0,0,1,1.56.32,2.37,2.37,0,0,1,1.07.67,1.91,1.91,0,0,1,.46,1.36,2.07,2.07,0,0,1-.44,1.28,2.8,2.8,0,0,1-1.28.89,5.68,5.68,0,0,1-2,.33A8.47,8.47,0,0,1,248.11,130Z" style="fill:#fff"></path><path d="M262.15,123.14a3.38,3.38,0,0,1,.86,2.54V130h-2.66v-3.92c0-1-.42-1.56-1.25-1.56A1.45,1.45,0,0,0,258,125a2,2,0,0,0-.41,1.35V130h-2.67V119.62h2.67v3.51a2.94,2.94,0,0,1,1-.62,3.8,3.8,0,0,1,1.27-.21A3.14,3.14,0,0,1,262.15,123.14Z" style="fill:#fff"></path><path d="M266.41,129.66a3.78,3.78,0,0,1-2.09-3.44,3.78,3.78,0,0,1,2.09-3.42,4.83,4.83,0,0,1,2.21-.5,4.9,4.9,0,0,1,2.22.5,3.68,3.68,0,0,1,1.53,1.39,3.74,3.74,0,0,1,.55,2,3.75,3.75,0,0,1-2.08,3.44,5.07,5.07,0,0,1-4.43,0Zm3.36-2.1a1.89,1.89,0,0,0,.45-1.34,1.85,1.85,0,0,0-.45-1.32,1.62,1.62,0,0,0-2.3,0,1.85,1.85,0,0,0-.45,1.32,1.89,1.89,0,0,0,.45,1.34,1.62,1.62,0,0,0,2.3,0Z" style="fill:#fff"></path><path d="M280.83,122.78a3.58,3.58,0,0,1,1.35,1.38,4.12,4.12,0,0,1,.5,2.07,4.07,4.07,0,0,1-.5,2.07,3.45,3.45,0,0,1-1.35,1.38,3.74,3.74,0,0,1-1.88.49,2.85,2.85,0,0,1-2.13-.81v3.41h-2.67V122.43h2.55v.75a2.76,2.76,0,0,1,2.25-.88A3.73,3.73,0,0,1,280.83,122.78Zm-1.29,4.78a2.23,2.23,0,0,0,0-2.66,1.52,1.52,0,0,0-1.16-.48,1.5,1.5,0,0,0-1.15.48,2.19,2.19,0,0,0,0,2.66,1.5,1.5,0,0,0,1.15.48A1.52,1.52,0,0,0,279.54,127.56Z" style="fill:#fff"></path></g><path d="M156,155.88l-1.75.64,1.75.64v.66l-2.5-.95v-.69l2.5-1Z" style="fill:#407BFF"></path><path d="M157.91,153.94h.73l-1.73,4.95h-.73Z" style="fill:#407BFF"></path><path d="M161.24,156.18v.69l-2.5.95v-.66l1.75-.64-1.75-.64v-.65Z" style="fill:#407BFF"></path><g style="opacity:0.2"><path d="M160.87,163.39h-7.15a.66.66,0,0,1,0-1.31h7.15a.66.66,0,1,1,0,1.31Z"></path><path d="M160.87,167.68h-7.15a.66.66,0,0,1,0-1.31h7.15a.66.66,0,1,1,0,1.31Z"></path><path d="M160.87,172h-7.15a.66.66,0,0,1,0-1.31h7.15a.66.66,0,1,1,0,1.31Z"></path><path d="M160.87,176.26h-7.15a.66.66,0,0,1,0-1.31h7.15a.66.66,0,1,1,0,1.31Z"></path><path d="M160.87,180.55h-7.15a.66.66,0,0,1,0-1.32h7.15a.66.66,0,0,1,0,1.32Z"></path><path d="M160.87,184.84h-7.15a.66.66,0,0,1,0-1.32h7.15a.66.66,0,0,1,0,1.32Z"></path><path d="M160.87,189.13h-7.15a.66.66,0,0,1,0-1.32h7.15a.66.66,0,0,1,0,1.32Z"></path><path d="M160.87,193.42h-7.15a.66.66,0,0,1,0-1.32h7.15a.66.66,0,0,1,0,1.32Z"></path><path d="M160.87,197.7h-7.15a.66.66,0,0,1,0-1.31h7.15a.66.66,0,1,1,0,1.31Z"></path></g><path d="M181.54,184.76H166.87a.66.66,0,0,1,0-1.31h14.67a.66.66,0,0,1,0,1.31Z" style="fill:#407BFF"></path><path d="M181.54,163.39H166.87a.66.66,0,0,1,0-1.31h14.67a.66.66,0,0,1,0,1.31Z" style="fill:#407BFF"></path><path d="M223.65,184.76H185.44a.66.66,0,1,1,0-1.31h38.21a.66.66,0,1,1,0,1.31Z" style="fill:#263238"></path><g style="opacity:0.2"><path d="M228.4,167.68H217.33a.66.66,0,1,1,0-1.31H228.4a.66.66,0,1,1,0,1.31Z" style="fill:#263238"></path></g><path d="M191.55,188.47h-22.7a.66.66,0,1,1,0-1.32h22.7a.66.66,0,0,1,0,1.32Z" style="fill:#263238"></path><path d="M218.58,188.47H196.22a.66.66,0,0,1,0-1.32h22.36a.66.66,0,1,1,0,1.32Z" style="fill:#407BFF"></path><path d="M246.35,188.47H222.22a.66.66,0,1,1,0-1.32h24.13a.66.66,0,0,1,0,1.32Z" style="fill:#263238"></path><g style="opacity:0.2"><path d="M193.65,192.76H180a.66.66,0,0,1,0-1.32h13.63a.66.66,0,0,1,0,1.32Z" style="fill:#263238"></path></g><path d="M212.94,192.76H198.07a.66.66,0,0,1,0-1.32h14.87a.66.66,0,0,1,0,1.32Z" style="fill:#263238"></path><g style="opacity:0.2"><path d="M240.43,192.76H216.32a.66.66,0,0,1,0-1.32h24.11a.66.66,0,0,1,0,1.32Z" style="fill:#263238"></path></g><g style="opacity:0.2"><path d="M187.17,167.68H168.85a.66.66,0,1,1,0-1.31h18.32a.66.66,0,1,1,0,1.31Z" style="fill:#263238"></path></g><path d="M189.47,172H168.85a.66.66,0,1,1,0-1.31h20.62a.66.66,0,0,1,0,1.31Z" style="fill:#407BFF"></path><g style="opacity:0.2"><path d="M223.91,172H192.84a.66.66,0,0,1,0-1.31h31.07a.66.66,0,1,1,0,1.31Z" style="fill:#263238"></path></g><path d="M242.66,163.39H211.6a.66.66,0,1,1,0-1.31h31.06a.66.66,0,1,1,0,1.31Z" style="fill:#263238"></path><path d="M246.35,172H227.68a.66.66,0,1,1,0-1.31h18.67a.66.66,0,0,1,0,1.31Z" style="fill:#263238"></path><g style="opacity:0.2"><path d="M187.23,176.26H175.42a.66.66,0,0,1,0-1.32h11.81a.66.66,0,0,1,0,1.32Z" style="fill:#263238"></path></g><g style="opacity:0.2"><path d="M213.9,176.26H191.25a.66.66,0,0,1,0-1.32H213.9a.66.66,0,0,1,0,1.32Z" style="fill:#263238"></path></g><g style="opacity:0.2"><path d="M207.89,163.39H185.24a.66.66,0,0,1,0-1.31h22.65a.66.66,0,1,1,0,1.31Z" style="fill:#263238"></path></g><path d="M240.43,176.26H218.32a.66.66,0,0,1,0-1.32h22.11a.66.66,0,0,1,0,1.32Z" style="fill:#263238"></path><path d="M213.63,167.68H191.52a.66.66,0,0,1,0-1.31h22.11a.66.66,0,1,1,0,1.31Z" style="fill:#263238"></path><path d="M195.91,180.55H182a.66.66,0,0,1,0-1.32h13.91a.66.66,0,0,1,0,1.32Z" style="fill:#263238"></path><g style="opacity:0.2"><path d="M212,180.55H198.77a.66.66,0,0,1,0-1.32H212a.66.66,0,0,1,0,1.32Z" style="fill:#263238"></path></g><path d="M240.43,180.55H216.19a.66.66,0,0,1,0-1.32h24.24a.66.66,0,0,1,0,1.32Z" style="fill:#407BFF"></path><g style="opacity:0.2"><path d="M199,197.05H182a.66.66,0,0,1,0-1.32h17a.66.66,0,0,1,0,1.32Z" style="fill:#263238"></path></g></g><g id="freepik--Tabs--inject-42"><rect x="135.64" y="145.26" width="13.13" height="9.48" style="fill:#407BFF"></rect><rect x="75.35" y="149.1" width="73.42" height="53.15" style="fill:#407BFF"></rect><rect x="75.35" y="149.1" width="73.42" height="53.15" style="fill:#fff;isolation:isolate;opacity:0.7000000000000001"></rect><rect x="75.35" y="149.1" width="10.23" height="53.15" style="opacity:0.1"></rect><rect x="75.35" y="148.98" width="73.42" height="4.97" style="fill:#407BFF"></rect><circle cx="145.61" cy="147.68" r="1.03" style="fill:#fff"></circle><circle cx="142.01" cy="147.68" r="1.03" style="fill:#fff"></circle><circle cx="138.41" cy="147.68" r="1.03" style="fill:#fff"></circle><path d="M97.34,173.36a3.38,3.38,0,0,1-1.36-1l1.43-1.69a2.06,2.06,0,0,0,1.6,1,1.09,1.09,0,0,0,.87-.34,1.5,1.5,0,0,0,.3-1v-4H97v-2h5.8v5.85a3.67,3.67,0,0,1-.9,2.7,3.62,3.62,0,0,1-2.67.91A4.67,4.67,0,0,1,97.34,173.36Z" style="fill:#263238"></path><path d="M110.56,171.73h-3.92l-.73,1.8h-2.67l4.09-9.27h2.58l4.11,9.27h-2.73Zm-.77-1.93-1.19-3-1.19,3Z" style="fill:#263238"></path><path d="M123.64,164.26l-4,9.27h-2.58l-4-9.27H116l2.52,6,2.57-6Z" style="fill:#263238"></path><path d="M130.08,171.73h-3.92l-.73,1.8h-2.67l4.09-9.27h2.58l4.11,9.27h-2.73Zm-.77-1.93-1.19-3-1.19,3Z" style="fill:#263238"></path><path d="M96,189.33a5.39,5.39,0,0,1-1.72-.74l.86-1.94a5.32,5.32,0,0,0,1.44.67,5.8,5.8,0,0,0,1.62.25c1,0,1.5-.25,1.5-.76a.63.63,0,0,0-.43-.59,8.22,8.22,0,0,0-1.38-.4,13.6,13.6,0,0,1-1.75-.48,3,3,0,0,1-1.2-.83A2.22,2.22,0,0,1,94.4,183a2.68,2.68,0,0,1,.47-1.53,3.19,3.19,0,0,1,1.38-1.08,5.83,5.83,0,0,1,2.26-.39,7.76,7.76,0,0,1,1.8.2,5.76,5.76,0,0,1,1.56.6l-.8,1.95A5.37,5.37,0,0,0,98.5,182a2.11,2.11,0,0,0-1.14.23.68.68,0,0,0-.36.6.6.6,0,0,0,.42.56,8.06,8.06,0,0,0,1.37.38,13.16,13.16,0,0,1,1.75.48,3.14,3.14,0,0,1,1.21.82,2.21,2.21,0,0,1,.51,1.53,2.6,2.6,0,0,1-.47,1.51,3.1,3.1,0,0,1-1.39,1.08,5.58,5.58,0,0,1-2.25.41A8.74,8.74,0,0,1,96,189.33Z" style="fill:#263238"></path><path d="M104.88,189.06a3.47,3.47,0,0,1-1.46-1.32,3.6,3.6,0,0,1-.53-1.92,3.54,3.54,0,0,1,2-3.23,4.76,4.76,0,0,1,2.13-.47,4.11,4.11,0,0,1,2.11.53,2.85,2.85,0,0,1,1.25,1.45l-1.94,1a1.56,1.56,0,0,0-1.43-1,1.5,1.5,0,0,0-1.12.45,2,2,0,0,0,0,2.51,1.47,1.47,0,0,0,1.12.46,1.55,1.55,0,0,0,1.43-1l1.94,1a2.85,2.85,0,0,1-1.25,1.45,4.1,4.1,0,0,1-2.11.52A4.64,4.64,0,0,1,104.88,189.06Z" style="fill:#263238"></path><path d="M114.73,182.37a3.85,3.85,0,0,1,1.41-.25v2.27a4.43,4.43,0,0,0-.57,0,1.74,1.74,0,0,0-1.27.44,1.77,1.77,0,0,0-.46,1.33v3.3h-2.51v-7.18h2.39v.86A2.36,2.36,0,0,1,114.73,182.37Z" style="fill:#263238"></path><path d="M117.31,181.07a1.26,1.26,0,0,1-.42-1,1.22,1.22,0,0,1,.42-1,1.61,1.61,0,0,1,1.12-.39,1.65,1.65,0,0,1,1.11.37,1.17,1.17,0,0,1,.42.93,1.29,1.29,0,0,1-.42,1,1.57,1.57,0,0,1-1.11.39A1.65,1.65,0,0,1,117.31,181.07Zm-.14,1.17h2.51v7.18h-2.51Z" style="fill:#263238"></path><path d="M127.61,182.58a3.38,3.38,0,0,1,1.27,1.3,4.3,4.3,0,0,1,0,3.91,3.28,3.28,0,0,1-1.27,1.29,3.47,3.47,0,0,1-1.78.46,2.68,2.68,0,0,1-2-.75V192h-2.52v-9.75h2.4V183a2.6,2.6,0,0,1,2.12-.84A3.57,3.57,0,0,1,127.61,182.58Zm-1.22,4.5a2.07,2.07,0,0,0,0-2.5,1.52,1.52,0,0,0-2.18,0,2.07,2.07,0,0,0,0,2.5,1.52,1.52,0,0,0,2.18,0Z" style="fill:#263238"></path><path d="M135.47,189.13a2.54,2.54,0,0,1-.78.3,3.74,3.74,0,0,1-1,.11,3.11,3.11,0,0,1-2.16-.69,2.64,2.64,0,0,1-.75-2v-2.41h-1.05v-1.88h1.05v-1.87h2.51v1.87H135v1.88h-1.65v2.38a.85.85,0,0,0,.21.61.74.74,0,0,0,.55.21,1.34,1.34,0,0,0,.77-.22Z" style="fill:#263238"></path><rect x="177.09" y="81.3" width="11.65" height="8.41" style="fill:#407BFF"></rect><rect x="123.62" y="84.7" width="65.12" height="47.14" style="fill:#407BFF"></rect><rect x="123.62" y="84.7" width="65.12" height="47.14" style="fill:#fff;isolation:isolate;opacity:0.7000000000000001"></rect><rect x="123.62" y="84.7" width="9.07" height="47.14" style="opacity:0.1"></rect><rect x="123.62" y="84.6" width="65.12" height="4.41" style="fill:#407BFF"></rect><path d="M185,83.45a.91.91,0,0,0,1.82,0,.91.91,0,1,0-1.82,0Z" style="fill:#fff"></path><path d="M181.83,83.45a.92.92,0,1,0,.92-.91A.91.91,0,0,0,181.83,83.45Z" style="fill:#fff"></path><path d="M178.64,83.45a.92.92,0,1,0,.91-.91A.91.91,0,0,0,178.64,83.45Z" style="fill:#fff"></path><path d="M144.81,105.5l-3.71,1.32,3.71,1.31v1.7l-5.73-2.12v-1.79l5.73-2.12Z" style="fill:#263238"></path><path d="M152.19,105.18a2.78,2.78,0,0,1,.72,2.1v3.61H150.7v-3.25c0-.86-.35-1.29-1-1.29a1.2,1.2,0,0,0-.91.37,1.61,1.61,0,0,0-.34,1.12v3H146.2v-8.63h2.21v2.91a2.38,2.38,0,0,1,.85-.52,3.19,3.19,0,0,1,1-.17A2.55,2.55,0,0,1,152.19,105.18Z" style="fill:#263238"></path><path d="M160.8,108.3h-4.59a1.38,1.38,0,0,0,.54.75,1.87,1.87,0,0,0,1,.26,2.38,2.38,0,0,0,.79-.13,2.43,2.43,0,0,0,.66-.42l1.17,1.21a3.43,3.43,0,0,1-2.69,1,4.26,4.26,0,0,1-1.94-.42,3.06,3.06,0,0,1-1.3-1.16,3.19,3.19,0,0,1,1.23-4.51,4,4,0,0,1,3.49,0,2.93,2.93,0,0,1,1.21,1.13,3.28,3.28,0,0,1,.45,1.75S160.82,108,160.8,108.3Zm-4.19-2a1.37,1.37,0,0,0-.43.79h2.58a1.33,1.33,0,0,0-.44-.79,1.27,1.27,0,0,0-.85-.29A1.31,1.31,0,0,0,156.61,106.34Z" style="fill:#263238"></path><path d="M166.76,105.2a2.73,2.73,0,0,1,.83,2.19v3.5h-2.06v-.81a1.9,1.9,0,0,1-1.86.91,2.94,2.94,0,0,1-1.27-.25,2,2,0,0,1-.81-.69,1.87,1.87,0,0,1-.27-1,1.61,1.61,0,0,1,.69-1.39,3.61,3.61,0,0,1,2.11-.49h1.26c0-.67-.48-1-1.34-1a3.32,3.32,0,0,0-.92.14,2.55,2.55,0,0,0-.79.4l-.74-1.5a4.23,4.23,0,0,1,1.27-.54,6,6,0,0,1,1.51-.19A3.54,3.54,0,0,1,166.76,105.2Zm-1.8,4.21a1,1,0,0,0,.42-.54v-.55h-.95c-.65,0-1,.21-1,.64a.54.54,0,0,0,.22.46.94.94,0,0,0,.61.18A1.17,1.17,0,0,0,165,109.41Z" style="fill:#263238"></path><path d="M175.78,102.26v8.63h-2.11v-.63a2.26,2.26,0,0,1-1.85.73,3.14,3.14,0,0,1-1.57-.4,2.92,2.92,0,0,1-1.12-1.14,3.56,3.56,0,0,1-.41-1.72,3.5,3.5,0,0,1,.41-1.72,2.9,2.9,0,0,1,1.12-1.13,3.14,3.14,0,0,1,1.57-.4,2.3,2.3,0,0,1,1.75.65v-2.87Zm-2.55,6.58a1.57,1.57,0,0,0,.37-1.11,1.58,1.58,0,0,0-.36-1.1,1.25,1.25,0,0,0-1-.39,1.24,1.24,0,0,0-.95.39,1.55,1.55,0,0,0-.38,1.1,1.57,1.57,0,0,0,.38,1.11,1.32,1.32,0,0,0,1.89,0Z" style="fill:#263238"></path><path d="M182.9,105.92v1.79l-5.74,2.12v-1.7l3.71-1.31-3.71-1.32v-1.7Z" style="fill:#263238"></path><rect x="295.45" y="224.75" width="7.42" height="5.36" style="fill:#407BFF"></rect><rect x="261.36" y="226.92" width="41.51" height="30.05" style="fill:#407BFF"></rect><rect x="261.36" y="226.92" width="41.51" height="30.05" style="fill:#fff;isolation:isolate;opacity:0.7000000000000001"></rect><rect x="261.36" y="226.92" width="5.78" height="30.05" style="opacity:0.1"></rect><rect x="261.36" y="226.86" width="41.51" height="2.81" style="fill:#407BFF"></rect><circle cx="301.08" cy="226.12" r="0.58" style="fill:#fff"></circle><circle cx="299.05" cy="226.12" r="0.58" style="fill:#fff"></circle><circle cx="297.02" cy="226.12" r="0.58" style="fill:#fff"></circle><path d="M277.42,240.36l-2,.7,2,.69v.9l-3-1.12v-.95l3-1.12Z" style="fill:#263238"></path><path d="M278.21,238.9h2a2.78,2.78,0,0,1,1.26.27,1.89,1.89,0,0,1,.85.75,2.11,2.11,0,0,1,.3,1.14,2.16,2.16,0,0,1-.3,1.14,2,2,0,0,1-.85.75,2.92,2.92,0,0,1-1.26.26h-2Zm2,3.34a1.28,1.28,0,0,0,.89-.32,1.11,1.11,0,0,0,.33-.86,1.15,1.15,0,0,0-.33-.87,1.28,1.28,0,0,0-.89-.32h-.77v2.37Z" style="fill:#263238"></path><path d="M283.29,238.9h1.22v4.31h-1.22Z" style="fill:#263238"></path><path d="M289.74,238.9l-1.85,4.31h-1.2l-1.84-4.31h1.32l1.17,2.81,1.19-2.81Z" style="fill:#263238"></path><path d="M293.05,240.58v.95l-3,1.12v-.9l2-.69-2-.7v-.9Z" style="fill:#263238"></path><rect x="372.36" y="75.95" width="14.91" height="10.76" style="fill:#407BFF"></rect><rect x="303.91" y="80.3" width="83.36" height="60.34" style="fill:#407BFF"></rect><rect x="303.91" y="80.3" width="83.36" height="60.34" style="fill:#fff;isolation:isolate;opacity:0.7000000000000001"></rect><rect x="303.91" y="80.3" width="11.61" height="60.34" style="opacity:0.1"></rect><rect x="303.91" y="80.17" width="83.36" height="5.64" style="fill:#407BFF"></rect><circle cx="383.67" cy="78.7" r="1.17" style="fill:#fff"></circle><circle cx="379.59" cy="78.7" r="1.17" style="fill:#fff"></circle><circle cx="375.5" cy="78.7" r="1.17" style="fill:#fff"></circle><path d="M335.82,105.21a5.57,5.57,0,0,1,0,10.24,9.08,9.08,0,0,1-3.72.71h-2.76v4.13h-4.46V104.5h7.22A9.08,9.08,0,0,1,335.82,105.21ZM333.9,112a2.08,2.08,0,0,0,.7-1.7,2.12,2.12,0,0,0-.7-1.71,3.06,3.06,0,0,0-2.07-.61h-2.49v4.62h2.49A3.12,3.12,0,0,0,333.9,112Z" style="fill:#263238"></path><path d="M356.3,104.5v15.79h-4.47v-6.16h-6.09v6.16h-4.46V104.5h4.46v5.93h6.09V104.5Z" style="fill:#263238"></path><path d="M370.4,105.21a5.48,5.48,0,0,1,2.43,2,5.57,5.57,0,0,1,.86,3.1,5.34,5.34,0,0,1-3.29,5.11,9.11,9.11,0,0,1-3.72.71h-2.76v4.13h-4.46V104.5h7.22A9.11,9.11,0,0,1,370.4,105.21ZM368.48,112a2.08,2.08,0,0,0,.7-1.7,2.12,2.12,0,0,0-.7-1.71,3.08,3.08,0,0,0-2.08-.61h-2.48v4.62h2.48A3.13,3.13,0,0,0,368.48,112Z" style="fill:#263238"></path></g><g id="freepik--Tables--inject-42"><polygon points="229.64 417.31 227.17 417.31 224 311.47 227.26 311.47 229.64 417.31" style="fill:#263238"></polygon><polygon points="229.64 417.31 227.17 417.31 224 311.47 227.26 311.47 229.64 417.31" style="fill:#fff;opacity:0.6000000000000001"></polygon><polygon points="189.87 311.47 189.87 417.31 192.48 417.31 195.55 316.31 227.05 316.31 229.35 417.31 231.94 417.31 231.94 311.47 189.87 311.47" style="fill:#263238"></polygon><polygon points="189.87 311.47 189.87 417.31 192.48 417.31 195.55 316.31 227.05 316.31 229.35 417.31 231.94 417.31 231.94 311.47 189.87 311.47" style="fill:#fff;opacity:0.4"></polygon><polygon points="189.87 417.31 187.4 417.31 186.61 311.47 189.87 311.47 189.87 417.31" style="fill:#263238"></polygon><polygon points="189.87 417.31 187.4 417.31 186.61 311.47 189.87 311.47 189.87 417.31" style="fill:#fff;opacity:0.6000000000000001"></polygon><polygon points="142.15 417.31 139.68 417.31 136.5 311.47 139.76 311.47 142.15 417.31" style="fill:#263238"></polygon><polygon points="142.15 417.31 139.68 417.31 136.5 311.47 139.76 311.47 142.15 417.31" style="fill:#fff;opacity:0.6000000000000001"></polygon><polygon points="102.37 311.47 102.37 417.31 104.98 417.31 108.06 316.31 139.56 316.31 141.86 417.31 144.44 417.31 144.44 311.47 102.37 311.47" style="fill:#263238"></polygon><polygon points="102.37 311.47 102.37 417.31 104.98 417.31 108.06 316.31 139.56 316.31 141.86 417.31 144.44 417.31 144.44 311.47 102.37 311.47" style="fill:#fff;opacity:0.30000000000000004"></polygon><polygon points="102.37 417.31 99.91 417.31 99.11 311.47 102.37 311.47 102.37 417.31" style="fill:#263238"></polygon><polygon points="102.37 417.31 99.91 417.31 99.11 311.47 102.37 311.47 102.37 417.31" style="fill:#fff;opacity:0.6000000000000001"></polygon><rect x="94.8" y="305.39" width="93.04" height="6.09" style="fill:#263238"></rect><rect x="94.8" y="305.39" width="93.04" height="6.09" style="fill:#fff;opacity:0.4"></rect><rect x="184.04" y="305.39" width="52.21" height="6.09" style="fill:#263238"></rect><rect x="184.04" y="305.39" width="52.21" height="6.09" style="fill:#fff;opacity:0.30000000000000004"></rect><polygon points="357.43 416.8 354.96 416.8 351.79 310.97 355.05 310.97 357.43 416.8" style="fill:#263238"></polygon><polygon points="357.43 416.8 354.96 416.8 351.79 310.97 355.05 310.97 357.43 416.8" style="fill:#fff;opacity:0.6000000000000001"></polygon><polygon points="317.66 310.97 317.66 416.8 320.27 416.8 323.34 315.8 354.84 315.8 357.14 416.8 359.73 416.8 359.73 310.97 317.66 310.97" style="fill:#263238"></polygon><polygon points="317.66 310.97 317.66 416.8 320.27 416.8 323.34 315.8 354.84 315.8 357.14 416.8 359.73 416.8 359.73 310.97 317.66 310.97" style="fill:#fff;opacity:0.4"></polygon><polygon points="317.66 416.8 315.19 416.8 314.4 310.97 317.66 310.97 317.66 416.8" style="fill:#263238"></polygon><polygon points="317.66 416.8 315.19 416.8 314.4 310.97 317.66 310.97 317.66 416.8" style="fill:#fff;opacity:0.6000000000000001"></polygon><polygon points="269.93 416.8 267.47 416.8 264.29 310.97 267.55 310.97 269.93 416.8" style="fill:#263238"></polygon><polygon points="269.93 416.8 267.47 416.8 264.29 310.97 267.55 310.97 269.93 416.8" style="fill:#fff;opacity:0.6000000000000001"></polygon><polygon points="230.16 310.97 230.16 416.8 232.77 416.8 235.84 315.8 267.34 315.8 269.65 416.8 272.23 416.8 272.23 310.97 230.16 310.97" style="fill:#263238"></polygon><polygon points="230.16 310.97 230.16 416.8 232.77 416.8 235.84 315.8 267.34 315.8 269.65 416.8 272.23 416.8 272.23 310.97 230.16 310.97" style="fill:#fff;opacity:0.30000000000000004"></polygon><polygon points="230.16 416.8 227.7 416.8 226.9 310.97 230.16 310.97 230.16 416.8" style="fill:#263238"></polygon><polygon points="230.16 416.8 227.7 416.8 226.9 310.97 230.16 310.97 230.16 416.8" style="fill:#fff;opacity:0.6000000000000001"></polygon><rect x="222.59" y="304.88" width="93.04" height="6.09" style="fill:#263238"></rect><rect x="222.59" y="304.88" width="93.04" height="6.09" style="fill:#fff;opacity:0.4"></rect><rect x="311.83" y="304.88" width="52.21" height="6.09" style="fill:#263238"></rect><rect x="311.83" y="304.88" width="52.21" height="6.09" style="fill:#fff;opacity:0.30000000000000004"></rect><path d="M135.3,304.93h32.5a1.84,1.84,0,0,0,1.77-1.55L172.85,280a1.32,1.32,0,0,0-1.33-1.56H139a1.86,1.86,0,0,0-1.78,1.56L134,303.38A1.32,1.32,0,0,0,135.3,304.93Z" style="fill:#407BFF"></path><path d="M135.3,304.93h32.5a1.84,1.84,0,0,0,1.77-1.55L172.85,280a1.32,1.32,0,0,0-1.33-1.56H139a1.86,1.86,0,0,0-1.78,1.56L134,303.38A1.32,1.32,0,0,0,135.3,304.93Z" style="fill:#fff;opacity:0.2"></path><path d="M137.48,301.45l28.88-.14a1.71,1.71,0,0,0,1.64-1.43l2.56-17.62a1.21,1.21,0,0,0-1.23-1.43l-28.88.13a1.7,1.7,0,0,0-1.63,1.43L136.25,300A1.22,1.22,0,0,0,137.48,301.45Z" style="fill:#263238"></path><path d="M137.48,301.45l28.88-.14a1.71,1.71,0,0,0,1.64-1.43l2.56-17.62a1.21,1.21,0,0,0-1.23-1.43l-28.88.13a1.7,1.7,0,0,0-1.63,1.43L136.25,300A1.22,1.22,0,0,0,137.48,301.45Z" style="fill:#fff;opacity:0.7000000000000001"></path><path d="M141.23,283.31l-.52.19.52.18v.2l-.74-.28v-.21l.74-.28Z" style="fill:#fff"></path><path d="M141.79,282.73H142l-.51,1.47h-.22Z" style="fill:#fff"></path><path d="M142.77,283.39v.21l-.74.28v-.2l.52-.18-.52-.19v-.2Z" style="fill:#fff"></path><g style="opacity:0.2"><path d="M142.42,285.53h-2.13a.19.19,0,0,1-.19-.19.2.2,0,0,1,.19-.2h2.13a.2.2,0,0,1,.19.2A.19.19,0,0,1,142.42,285.53Z"></path><path d="M142.21,286.81h-2.12a.2.2,0,0,1-.19-.2.19.19,0,0,1,.19-.19h2.12a.19.19,0,0,1,.2.19A.2.2,0,0,1,142.21,286.81Z"></path><path d="M142.09,288.08H140a.2.2,0,0,1-.19-.2.2.2,0,0,1,.19-.19h2.12a.2.2,0,1,1,0,.39Z"></path><path d="M141.84,289.35h-2.12a.19.19,0,0,1-.19-.19.19.19,0,0,1,.19-.2h2.12a.2.2,0,1,1,0,.39Z"></path><path d="M141.68,290.62h-2.12a.19.19,0,0,1-.2-.19.2.2,0,0,1,.2-.2h2.12a.19.19,0,0,1,.19.2A.18.18,0,0,1,141.68,290.62Z"></path><path d="M141.45,291.9h-2.12a.2.2,0,0,1-.19-.2.19.19,0,0,1,.19-.19h2.12a.19.19,0,0,1,.2.19A.2.2,0,0,1,141.45,291.9Z"></path><path d="M141.26,293.17h-2.12a.2.2,0,0,1-.2-.2.19.19,0,0,1,.2-.19h2.12a.18.18,0,0,1,.19.19A.19.19,0,0,1,141.26,293.17Z"></path><path d="M141,294.44H138.9a.2.2,0,1,1,0-.39H141a.19.19,0,0,1,.19.2A.19.19,0,0,1,141,294.44Z"></path><path d="M140.78,295.71h-2.12a.18.18,0,0,1-.19-.19.19.19,0,0,1,.19-.2h2.12a.2.2,0,0,1,.2.2A.19.19,0,0,1,140.78,295.71Z"></path></g><path d="M148.55,285.53H144.2a.19.19,0,0,1-.2-.19.2.2,0,0,1,.2-.2h4.35a.2.2,0,0,1,.19.2A.19.19,0,0,1,148.55,285.53Z" style="fill:#407BFF"></path><path d="M161,285.53H149.7a.19.19,0,0,1-.19-.19.2.2,0,0,1,.19-.2H161a.19.19,0,0,1,.19.2A.18.18,0,0,1,161,285.53Z" style="fill:#263238"></path><g style="opacity:0.2"><path d="M166.21,285.53h-3.28a.19.19,0,0,1-.2-.19.2.2,0,0,1,.2-.2h3.28a.2.2,0,0,1,.2.2A.19.19,0,0,1,166.21,285.53Z" style="fill:#263238"></path></g><g style="opacity:0.2"><path d="M155.94,286.81H144.58a.2.2,0,0,1-.2-.2.19.19,0,0,1,.2-.19h11.36a.19.19,0,0,1,.2.19A.2.2,0,0,1,155.94,286.81Z" style="fill:#263238"></path></g><path d="M167.57,286.81H157a.19.19,0,0,1-.19-.2.18.18,0,0,1,.19-.19h10.59a.19.19,0,0,1,.2.19A.2.2,0,0,1,167.57,286.81Z" style="fill:#407BFF"></path><path d="M151.19,288.08h-6.73a.2.2,0,1,1,0-.39h6.73a.2.2,0,1,1,0,.39Z" style="fill:#263238"></path><path d="M159.21,288.08h-6.63a.19.19,0,0,1-.19-.2.19.19,0,0,1,.19-.19h6.63a.2.2,0,1,1,0,.39Z" style="fill:#407BFF"></path><path d="M167.45,288.08h-7.16a.2.2,0,0,1-.19-.2.2.2,0,0,1,.19-.19h7.16a.2.2,0,1,1,0,.39Z" style="fill:#263238"></path><path d="M151.57,289.35h-4a.2.2,0,0,1-.19-.19.2.2,0,0,1,.19-.2h4a.2.2,0,0,1,.19.2A.2.2,0,0,1,151.57,289.35Z" style="fill:#263238"></path><path d="M157.29,289.35h-4.41a.2.2,0,1,1,0-.39h4.41a.19.19,0,0,1,.19.2A.19.19,0,0,1,157.29,289.35Z" style="fill:#263238"></path><g style="opacity:0.2"><path d="M165.44,289.35h-7.15a.19.19,0,0,1-.19-.19.19.19,0,0,1,.19-.2h7.15a.2.2,0,1,1,0,.39Z" style="fill:#263238"></path></g><g style="opacity:0.2"><path d="M149.48,290.62h-5.43a.19.19,0,0,1-.2-.19.2.2,0,0,1,.2-.2h5.43a.2.2,0,0,1,.2.2A.19.19,0,0,1,149.48,290.62Z" style="fill:#263238"></path></g><path d="M149.94,291.9h-6.12a.19.19,0,0,1-.19-.2.18.18,0,0,1,.19-.19h6.12a.18.18,0,0,1,.19.19A.19.19,0,0,1,149.94,291.9Z" style="fill:#407BFF"></path><path d="M160.16,291.9h-9.22c1.1,0,1-.09,1-.2a.19.19,0,0,1,.2-.19h9.22a.19.19,0,0,1,.19.19C161.56,291.81,161.47,291.9,160.16,291.9Z" style="fill:#263238"></path><path d="M166.81,291.9h-5.54a.2.2,0,0,1-.19-.2.19.19,0,0,1,.19-.19h5.54a.19.19,0,0,1,.2.19A.2.2,0,0,1,166.81,291.9Z" style="fill:#263238"></path><g style="opacity:0.2"><path d="M149.08,293.17h-3.51a.2.2,0,0,1-.19-.2.19.19,0,0,1,.19-.19h3.51a.19.19,0,0,1,.19.19A.2.2,0,0,1,149.08,293.17Z" style="fill:#263238"></path></g><g style="opacity:0.2"><path d="M157,293.17h-6.72a.19.19,0,0,1-.19-.2.18.18,0,0,1,.19-.19H157a.18.18,0,0,1,.19.19A.19.19,0,0,1,157,293.17Z" style="fill:#263238"></path></g><path d="M164.86,293.17H158.3c1.3,0,1.21-.09,1.21-.2a.19.19,0,0,1,.2-.19h6.56a.19.19,0,0,1,.19.19C166.46,293.08,166.37,293.17,164.86,293.17Z" style="fill:#263238"></path><path d="M151.41,294.44h-4.12a.2.2,0,1,1,0-.39h4.12a.2.2,0,1,1,0,.39Z" style="fill:#263238"></path><g style="opacity:0.2"><path d="M156.2,294.44h-3.94a.2.2,0,0,1-.19-.19.2.2,0,0,1,.19-.2h3.94a.2.2,0,0,1,.19.2A.2.2,0,0,1,156.2,294.44Z" style="fill:#263238"></path></g><path d="M164.62,294.44h-7.19a.19.19,0,0,1-.19-.19.19.19,0,0,1,.19-.2h7.19a.2.2,0,1,1,0,.39Z" style="fill:#407BFF"></path><g style="opacity:0.2"><path d="M152.1,295.71h-5a.19.19,0,0,1-.2-.19.2.2,0,0,1,.2-.2h5a.2.2,0,0,1,.19.2A.19.19,0,0,1,152.1,295.71Z" style="fill:#263238"></path></g><polygon points="143.74 280.96 140.66 301.45 137.23 301.45 140.71 280.96 143.74 280.96" style="fill:#fff;opacity:0.30000000000000004"></polygon><path d="M115.64,304.83H155a1.09,1.09,0,0,0,1.09-1.09h0a1.09,1.09,0,0,0-1.09-1.1H115.64a1.09,1.09,0,0,0-1.09,1.1h0A1.09,1.09,0,0,0,115.64,304.83Z" style="fill:#407BFF"></path><path d="M115.64,304.83H155a1.09,1.09,0,0,0,1.09-1.09h0a1.09,1.09,0,0,0-1.09-1.1H115.64a1.09,1.09,0,0,0-1.09,1.1h0A1.09,1.09,0,0,0,115.64,304.83Z" style="fill:#fff;opacity:0.7000000000000001"></path><path d="M146.68,304.83h21a1.09,1.09,0,0,0,1.09-1.09h0a1.09,1.09,0,0,0-1.09-1.1h-21a1.1,1.1,0,0,0-1.1,1.1h0A1.09,1.09,0,0,0,146.68,304.83Z" style="fill:#407BFF"></path><path d="M146.68,304.83h21a1.09,1.09,0,0,0,1.09-1.09h0a1.09,1.09,0,0,0-1.09-1.1h-21a1.1,1.1,0,0,0-1.1,1.1h0A1.09,1.09,0,0,0,146.68,304.83Z" style="fill:#fff;opacity:0.5"></path><path d="M266.67,304.74h32.5a1.85,1.85,0,0,0,1.77-1.56l3.28-23.34a1.32,1.32,0,0,0-1.34-1.55H270.39a1.85,1.85,0,0,0-1.78,1.55l-3.28,23.34A1.33,1.33,0,0,0,266.67,304.74Z" style="fill:#407BFF"></path><path d="M266.67,304.74h32.5a1.85,1.85,0,0,0,1.77-1.56l3.28-23.34a1.32,1.32,0,0,0-1.34-1.55H270.39a1.85,1.85,0,0,0-1.78,1.55l-3.28,23.34A1.33,1.33,0,0,0,266.67,304.74Z" style="fill:#fff;opacity:0.2"></path><path d="M268.85,301.25l28.88-.13a1.73,1.73,0,0,0,1.64-1.44l2.56-17.62a1.21,1.21,0,0,0-1.23-1.43l-28.88.13a1.7,1.7,0,0,0-1.63,1.43l-2.57,17.63A1.21,1.21,0,0,0,268.85,301.25Z" style="fill:#263238"></path><path d="M268.85,301.25l28.88-.13a1.73,1.73,0,0,0,1.64-1.44l2.56-17.62a1.21,1.21,0,0,0-1.23-1.43l-28.88.13a1.7,1.7,0,0,0-1.63,1.43l-2.57,17.63A1.21,1.21,0,0,0,268.85,301.25Z" style="fill:#fff;opacity:0.7000000000000001"></path><polygon points="275.11 280.76 272.03 301.25 268.6 301.25 272.08 280.76 275.11 280.76" style="fill:#fff;opacity:0.30000000000000004"></polygon><path d="M272.7,283.07l-.5.18.5.18v.19l-.71-.27v-.2l.71-.27Z" style="fill:#fff"></path><path d="M273.24,282.51h.21l-.5,1.42h-.21Z" style="fill:#fff"></path><path d="M274.19,283.15v.2l-.71.27v-.19l.5-.18-.5-.18v-.19Z" style="fill:#fff"></path><g style="opacity:0.2"><path d="M273.86,285.22h-2a.19.19,0,0,1-.19-.19.18.18,0,0,1,.19-.19h2a.18.18,0,0,1,.19.19A.19.19,0,0,1,273.86,285.22Z"></path><path d="M273.66,286.44h-2a.19.19,0,1,1,0-.37h2a.18.18,0,0,1,.19.18A.18.18,0,0,1,273.66,286.44Z"></path><path d="M273.54,287.67h-2.05a.19.19,0,0,1,0-.38h2.05a.19.19,0,0,1,0,.38Z"></path><path d="M273.29,288.89h-2a.19.19,0,1,1,0-.37h2a.18.18,0,0,1,.19.19A.18.18,0,0,1,273.29,288.89Z"></path><path d="M273.19,290.12h-2.05a.19.19,0,1,1,0-.37h2.05a.18.18,0,0,1,.18.18A.18.18,0,0,1,273.19,290.12Z"></path><path d="M273,291.35h-2.05a.19.19,0,0,1,0-.38H273a.19.19,0,1,1,0,.38Z"></path><path d="M272.83,292.57h-2a.19.19,0,1,1,0-.37h2a.18.18,0,0,1,.19.19A.18.18,0,0,1,272.83,292.57Z"></path><path d="M272.62,293.8h-2a.19.19,0,0,1-.19-.19.2.2,0,0,1,.19-.19h2a.19.19,0,0,1,.19.19A.18.18,0,0,1,272.62,293.8Z"></path><path d="M272.35,295h-2a.19.19,0,0,1-.19-.19.18.18,0,0,1,.19-.19h2a.18.18,0,0,1,.19.19A.19.19,0,0,1,272.35,295Z"></path></g><path d="M278.88,291.33h-4.2a.19.19,0,0,1-.18-.19.18.18,0,0,1,.18-.19h4.2a.19.19,0,0,1,.19.19A.2.2,0,0,1,278.88,291.33Z" style="fill:#407BFF"></path><path d="M279.77,285.22h-4.19a.19.19,0,0,1-.19-.19.18.18,0,0,1,.19-.19h4.19a.19.19,0,0,1,.19.19A.2.2,0,0,1,279.77,285.22Z" style="fill:#407BFF"></path><path d="M290.92,291.33H280a.2.2,0,0,1-.19-.19A.19.19,0,0,1,280,291h10.93a.18.18,0,0,1,.18.19A.19.19,0,0,1,290.92,291.33Z" style="fill:#263238"></path><g style="opacity:0.2"><path d="M293,286.44h-3.16a.18.18,0,0,1-.19-.19.18.18,0,0,1,.19-.18H293a.19.19,0,1,1,0,.37Z" style="fill:#263238"></path></g><path d="M281.65,292.57h-6.49a.19.19,0,1,1,0-.37h6.49a.19.19,0,1,1,0,.37Z" style="fill:#263238"></path><path d="M289.38,292.57H283a.18.18,0,0,1-.19-.18.18.18,0,0,1,.19-.19h6.39a.19.19,0,1,1,0,.37Z" style="fill:#407BFF"></path><path d="M297.32,292.57h-6.9a.19.19,0,1,1,0-.37h6.9a.19.19,0,1,1,0,.37Z" style="fill:#263238"></path><g style="opacity:0.2"><path d="M282,293.8h-3.89a.19.19,0,0,1-.19-.19.2.2,0,0,1,.19-.19H282a.19.19,0,0,1,.19.19A.18.18,0,0,1,282,293.8Z" style="fill:#263238"></path></g><path d="M287.49,293.8h-4.25a.18.18,0,0,1-.19-.19.19.19,0,0,1,.19-.19h4.25a.2.2,0,0,1,.19.19A.19.19,0,0,1,287.49,293.8Z" style="fill:#263238"></path><g style="opacity:0.2"><path d="M295.35,293.8h-6.89a.18.18,0,0,1-.19-.19.19.19,0,0,1,.19-.19h6.89a.2.2,0,0,1,.19.19A.19.19,0,0,1,295.35,293.8Z" style="fill:#263238"></path></g><g style="opacity:0.2"><path d="M281.18,286.44h-5.24a.18.18,0,0,1-.18-.19.18.18,0,0,1,.18-.18h5.24a.18.18,0,0,1,.19.18A.18.18,0,0,1,281.18,286.44Z" style="fill:#263238"></path></g><path d="M281.71,287.67h-5.89a.19.19,0,0,1,0-.38h5.89a.19.19,0,0,1,0,.38Z" style="fill:#407BFF"></path><g style="opacity:0.2"><path d="M291.56,287.67h-8.88a.19.19,0,0,1,0-.38h8.88a.19.19,0,0,1,0,.38Z" style="fill:#263238"></path></g><path d="M297.25,285.22h-8.89a.19.19,0,0,1-.18-.19.18.18,0,0,1,.18-.19h8.89a.18.18,0,0,1,.18.19A.19.19,0,0,1,297.25,285.22Z" style="fill:#263238"></path><path d="M298,287.67h-5.33a.19.19,0,0,1,0-.38H298a.19.19,0,0,1,0,.38Z" style="fill:#263238"></path><g style="opacity:0.2"><path d="M280.83,288.89h-3.38a.18.18,0,0,1-.18-.18.18.18,0,0,1,.18-.19h3.38a.19.19,0,1,1,0,.37Z" style="fill:#263238"></path></g><g style="opacity:0.2"><path d="M288.45,288.89H282a.19.19,0,1,1,0-.37h6.47a.18.18,0,0,1,.19.19A.18.18,0,0,1,288.45,288.89Z" style="fill:#263238"></path></g><g style="opacity:0.2"><path d="M287.3,285.22h-6.47a.2.2,0,0,1-.19-.19.19.19,0,0,1,.19-.19h6.47a.18.18,0,0,1,.19.19A.19.19,0,0,1,287.3,285.22Z" style="fill:#263238"></path></g><path d="M296,288.89h-6.32a.18.18,0,0,1-.19-.18.18.18,0,0,1,.19-.19H296a.19.19,0,1,1,0,.37Z" style="fill:#263238"></path><path d="M288.75,286.44h-6.32a.18.18,0,0,1-.19-.19.18.18,0,0,1,.19-.18h6.32a.19.19,0,1,1,0,.37Z" style="fill:#263238"></path><path d="M283.2,290.12h-4a.18.18,0,0,1-.19-.19.18.18,0,0,1,.19-.18h4a.18.18,0,0,1,.19.18A.18.18,0,0,1,283.2,290.12Z" style="fill:#263238"></path><g style="opacity:0.2"><path d="M287.81,290.12H284a.19.19,0,1,1,0-.37h3.79a.18.18,0,0,1,.19.18A.18.18,0,0,1,287.81,290.12Z" style="fill:#263238"></path></g><path d="M295.93,290.12H289a.19.19,0,1,1,0-.37h6.93a.18.18,0,0,1,.19.18A.18.18,0,0,1,295.93,290.12Z" style="fill:#407BFF"></path><g style="opacity:0.2"><path d="M283.25,295h-4.86a.2.2,0,0,1-.19-.19.19.19,0,0,1,.19-.19h4.86a.18.18,0,0,1,.19.19A.19.19,0,0,1,283.25,295Z" style="fill:#263238"></path></g><path d="M246.71,304.83h39.34a1.09,1.09,0,0,0,1.09-1.09h0a1.09,1.09,0,0,0-1.09-1.1H246.71a1.09,1.09,0,0,0-1.09,1.1h0A1.09,1.09,0,0,0,246.71,304.83Z" style="fill:#407BFF"></path><path d="M246.71,304.83h39.34a1.09,1.09,0,0,0,1.09-1.09h0a1.09,1.09,0,0,0-1.09-1.1H246.71a1.09,1.09,0,0,0-1.09,1.1h0A1.09,1.09,0,0,0,246.71,304.83Z" style="fill:#fff;opacity:0.7000000000000001"></path><path d="M277.74,304.83h21a1.09,1.09,0,0,0,1.09-1.09h0a1.09,1.09,0,0,0-1.09-1.1h-21a1.09,1.09,0,0,0-1.09,1.1h0A1.09,1.09,0,0,0,277.74,304.83Z" style="fill:#407BFF"></path><path d="M277.74,304.83h21a1.09,1.09,0,0,0,1.09-1.09h0a1.09,1.09,0,0,0-1.09-1.1h-21a1.09,1.09,0,0,0-1.09,1.1h0A1.09,1.09,0,0,0,277.74,304.83Z" style="fill:#fff;opacity:0.5"></path></g></svg>